<svg width="16" height="16" viewBox="0 0 16 16" fill="none" xmlns="http://www.w3.org/2000/svg">
<path d="M11.9997 0H3.9999C1.80015 0 0 1.80015 0 3.9999V12.0001C0 14.1993 1.80015 16 3.9999 16H11.9997C14.1995 16 15.9996 14.1993 15.9996 12.0001V3.9999C15.9996 1.80015 14.1995 0 11.9997 0ZM14.6662 12.0001C14.6662 13.4701 13.4705 14.6666 11.9997 14.6666H3.9999C2.52974 14.6666 1.33337 13.4701 1.33337 12.0001V3.9999C1.33337 2.52955 2.52974 1.33337 3.9999 1.33337H11.9997C13.4705 1.33337 14.6662 2.52955 14.6662 3.9999V12.0001Z" fill="#262525"/>
<path d="M12.333 4.66658C12.8853 4.66658 13.333 4.21887 13.333 3.6666C13.333 3.11433 12.8853 2.66663 12.333 2.66663C11.7807 2.66663 11.333 3.11433 11.333 3.6666C11.333 4.21887 11.7807 4.66658 12.333 4.66658Z" fill="#262525"/>
<path d="M7.9999 3.99988C5.79035 3.99988 4 5.79042 4 7.99978C4 10.2083 5.79035 12.0001 7.9999 12.0001C10.2088 12.0001 11.9998 10.2083 11.9998 7.99978C11.9998 5.79042 10.2088 3.99988 7.9999 3.99988ZM7.9999 10.6667C6.52732 10.6667 5.33337 9.47275 5.33337 7.99978C5.33337 6.52681 6.52732 5.33324 7.9999 5.33324C9.47248 5.33324 10.6664 6.52681 10.6664 7.99978C10.6664 9.47275 9.47248 10.6667 7.9999 10.6667Z" fill="#262525"/>
</svg>
