<svg width="76" height="30" viewBox="0 0 76 30" fill="none" xmlns="http://www.w3.org/2000/svg">
<path fill-rule="evenodd" clip-rule="evenodd" d="M8.15711 6.6427C3.92598 7.15619 0.562138 10.4123 0.0593594 14.4812C-0.0197865 15.1217 -0.0197865 16.1221 0.0593594 16.7626C0.459596 20.0015 2.75477 22.8615 5.90314 24.0445C8.27478 24.9356 11.1532 24.8154 13.3783 23.7323C14.3292 23.2695 15.4667 22.4456 15.9791 21.8489L16.2128 21.5767L16.0795 21.5268C16.0061 21.4993 15.0217 21.1159 13.8917 20.6746L11.8374 19.8724L11.4192 20.0598C10.6905 20.3864 10.2313 20.4779 9.29836 20.4827C8.60893 20.4863 8.3901 20.4659 7.98592 20.3606C6.6195 20.0046 5.39528 19.0665 4.79709 17.9172L4.67395 17.6807H11.4883H18.3026L18.3696 17.3053C18.5738 16.1616 18.552 14.7133 18.315 13.6792C17.5157 10.1919 14.7489 7.52383 11.1529 6.77286C10.707 6.67971 10.339 6.64983 9.46955 6.63608C8.85756 6.6264 8.26696 6.62941 8.15711 6.6427ZM45.2478 6.64265C41.91 7.04679 38.998 9.22037 37.7529 12.2371C37.2802 13.3823 37.1207 14.2365 37.1207 15.6219C37.1207 16.7682 37.1813 17.2271 37.4549 18.1537C38.1717 20.5809 39.9687 22.65 42.3091 23.7431C43.6389 24.3642 44.8582 24.6331 46.3532 24.6352C49.9099 24.6401 53.0679 22.745 54.6504 19.6561C56.9356 15.1952 55.0858 9.76741 50.5261 7.55433C49.1436 6.88331 48.1708 6.65767 46.5602 6.63452C45.9482 6.62568 45.3576 6.62935 45.2478 6.64265ZM17.5154 7.10344C17.5154 7.14879 18.4425 9.12327 19.255 10.8086C19.4026 11.1147 19.6339 11.603 19.7691 11.8937C19.9043 12.1844 20.1483 12.6978 20.3114 13.0344C20.4745 13.3711 20.7073 13.8593 20.829 14.1195C20.9506 14.3796 22.075 16.7459 23.3276 19.3779L25.605 24.1633L27.9432 24.1778L30.2812 24.1923L30.4389 23.8499C30.5255 23.6615 30.725 23.2419 30.8821 22.9172C31.0391 22.5926 31.3154 22.014 31.496 21.6315C31.9099 20.7546 32.3358 19.8585 35.6809 12.8265C37.1766 9.68222 38.4003 7.0966 38.4003 7.08057C38.4003 7.06449 37.356 7.05792 36.0796 7.06594L33.7589 7.08046L33.3198 7.99859C33.0783 8.50356 32.5535 9.60532 32.1535 10.4469C31.0611 12.7454 30.3982 14.1402 29.8265 15.3436C28.501 18.1339 28.0066 19.1578 27.9655 19.1979C27.941 19.2218 26.6205 16.5052 25.0311 13.1609L22.1414 7.08046L19.8284 7.06594C18.4194 7.05709 17.5154 7.07172 17.5154 7.10344ZM10.5771 10.8849C11.5947 11.152 12.4933 11.7295 13.187 12.5621C13.4002 12.8181 13.8059 13.4466 13.8061 13.5213C13.8063 13.5442 11.7514 13.563 9.23982 13.563H4.67338L4.76816 13.3822C4.97952 12.9789 5.45931 12.3675 5.81087 12.0534C6.50041 11.4372 7.27264 11.0391 8.17531 10.8343C8.80734 10.6909 9.92788 10.7145 10.5771 10.8849ZM47.4335 10.8359C48.6244 11.0926 49.7181 11.7958 50.4656 12.7852C50.9784 13.4639 51.2472 14.1505 51.3554 15.058C51.6465 17.5 50.0832 19.7192 47.6159 20.3664C46.9539 20.54 45.7579 20.5372 45.0766 20.3602C44.196 20.1315 43.1723 19.5426 42.6816 18.9824C41.7941 17.9689 41.4049 17.0819 41.3289 15.899C41.2108 14.0621 42.155 12.3616 43.8427 11.3714C44.8501 10.7804 46.2249 10.5753 47.4335 10.8359Z" fill="#792BF9"/>
<path fill-rule="evenodd" clip-rule="evenodd" d="M57.3584 12.3671V24.581H59.4697H61.581L61.582 20.0599C61.5826 17.5733 61.6075 15.3122 61.6375 15.0351C61.7507 13.987 62.1971 13.0169 62.903 12.2847C62.9762 12.2088 63.0297 12.1274 63.0219 12.1038C63.014 12.0803 63.0273 12.0673 63.0515 12.0749C63.0757 12.0826 63.172 12.018 63.2655 11.9315C63.7226 11.5084 64.6252 11.022 65.3003 10.835C65.8163 10.692 66.878 10.6325 67.4237 10.716C67.8592 10.7828 68.7617 11.0476 68.8668 11.1396C68.9039 11.172 69.0953 11.2862 69.292 11.3933C69.7496 11.6424 70.5669 12.4213 70.8984 12.9243C71.156 13.3151 71.4381 13.9142 71.4877 14.1755C71.5022 14.252 71.5452 14.4023 71.5832 14.5094C71.692 14.8155 71.671 16.3508 71.5524 16.763C71.4025 17.284 71.2026 17.7444 70.9765 18.089C70.8624 18.2629 70.77 18.4186 70.7712 18.4351C70.7723 18.4516 70.5346 18.6958 70.2428 18.9778C69.6647 19.5367 69.2193 19.8311 68.6179 20.0518C68.4039 20.1303 68.1918 20.2238 68.1465 20.2594C68.0827 20.3096 68.0739 20.3086 68.107 20.2548C68.1399 20.2014 68.1159 20.198 68.0028 20.2399C67.6325 20.3772 66.6462 20.4816 65.6753 20.4862C65.1182 20.489 64.6624 20.513 64.6624 20.5396C64.6624 20.5662 64.6095 20.9368 64.5449 21.3631C64.4802 21.7894 64.42 22.2184 64.4111 22.3163C64.4021 22.4142 64.3804 22.5319 64.3628 22.5778C64.2963 22.7505 64.0761 24.5287 64.1164 24.5679C64.1395 24.5904 64.9202 24.6083 65.8512 24.6076C67.1838 24.6067 67.6837 24.5853 68.2003 24.5076C68.905 24.4014 69.6637 24.2284 69.9407 24.1108C70.0348 24.0709 70.2403 23.9938 70.3972 23.9397C70.9812 23.7383 72.2517 23.0281 72.2517 22.903C72.2517 22.8736 72.2736 22.8626 72.3004 22.8788C72.37 22.9207 73.3916 21.9716 73.7838 21.5006C74.321 20.8556 74.9332 19.8984 74.9336 19.7028C74.9336 19.6672 74.954 19.6296 74.979 19.6194C75.0437 19.5928 75.2641 19.0714 75.4541 18.4949C75.9739 16.9178 76.045 14.9093 75.6384 13.2874C75.4909 12.6986 75.2007 11.8676 75.1024 11.752C75.0729 11.7174 75.0657 11.6726 75.0863 11.6525C75.107 11.6323 75.0939 11.6159 75.0573 11.6159C75.0207 11.6159 74.9949 11.5971 74.9999 11.5741C75.0152 11.5049 74.8748 11.2053 74.7782 11.1013C74.7284 11.0476 74.7035 11.0038 74.7229 11.0038C74.7769 11.0038 74.1646 10.0721 73.9221 9.78517C73.1335 8.85241 72.4523 8.27209 71.5032 7.725C70.747 7.28897 70.3206 7.11981 70.2437 7.22525C70.199 7.28657 70.1938 7.28201 70.2196 7.20428C70.2532 7.10267 70.0821 7.00357 69.8242 6.97536C69.76 6.96834 69.6808 6.94642 69.648 6.92667C69.5754 6.88293 69.2193 6.7939 68.6853 6.68612C68.1007 6.56804 66.5758 6.52414 65.864 6.60482C65.2216 6.67766 64.3719 6.87236 64.0062 7.03061C63.8807 7.08492 63.7586 7.1247 63.7351 7.11903C63.7116 7.11335 63.6923 7.13522 63.6923 7.16761C63.6923 7.19999 63.6665 7.21095 63.6349 7.19192C63.6033 7.17284 63.562 7.19643 63.5432 7.24428C63.5243 7.29208 63.4576 7.33126 63.395 7.33126C63.2405 7.33126 62.5919 7.66919 62.0525 8.03065L61.6096 8.32757L61.595 4.24033L61.5803 0.153137H59.4694H57.3584V12.3671ZM64.6314 6.93791C64.6495 6.9664 64.6424 7.00284 64.6158 7.01893C64.5891 7.03501 64.5673 7.01169 64.5673 6.96712C64.5673 6.8733 64.5853 6.86512 64.6314 6.93791ZM71.7059 14.2253C71.7233 14.2527 71.7005 14.289 71.6551 14.3059C71.6002 14.3265 71.5834 14.3099 71.6045 14.2561C71.6413 14.1627 71.6622 14.1563 71.7059 14.2253Z" fill="#792BF9"/>
<path fill-rule="evenodd" clip-rule="evenodd" d="M57.3584 28.7619V29.8469H66.6311H75.9037V28.7619V27.6768H66.6311H57.3584V28.7619Z" fill="#792BF9"/>
</svg>
