<svg width="16" height="17" viewBox="0 0 16 17" fill="none" xmlns="http://www.w3.org/2000/svg">
<path d="M12.5908 5.0098C12.5908 2.51961 10.5349 0.5 7.99998 0.5C5.46506 0.5 3.40918 2.51961 3.40918 5.0098C3.40918 7.5 5.46506 9.5196 7.99998 9.5196C10.5349 9.5196 12.5908 7.5 12.5908 5.0098ZM4.60678 5.0098C4.60678 3.16667 6.12374 1.67647 7.99998 1.67647C9.87622 1.67647 11.3932 3.16667 11.3932 5.0098C11.3932 6.85294 9.87622 8.34313 7.99998 8.34313C6.12374 8.34313 4.60678 6.85294 4.60678 5.0098Z" fill="#792BF9"/>
<path d="M0.315063 16.4216C0.414863 16.4804 0.514663 16.5 0.614463 16.5C0.814064 16.5 1.03362 16.402 1.13342 16.2059C2.53062 13.7745 5.16535 12.2647 7.99967 12.2647C10.834 12.2647 13.4687 13.7745 14.8859 16.2059C15.0456 16.4804 15.4248 16.5784 15.7042 16.4216C15.9837 16.2647 16.0835 15.8922 15.9238 15.6177C14.307 12.8334 11.2731 11.0883 7.99967 11.0883C4.72623 11.0883 1.6923 12.8334 0.0755429 15.6177C-0.0841372 15.8922 0.015663 16.2647 0.315063 16.4216Z" fill="#792BF9"/>
</svg>
